<?xml version="1.0" standalone="no"?>
<!DOCTYPE svg PUBLIC "-//W3C//DTD SVG 20010904//EN"
 "http://www.w3.org/TR/2001/REC-SVG-20010904/DTD/svg10.dtd">
<svg version="1.0" xmlns="http://www.w3.org/2000/svg"
 width="1024.000000pt" height="1024.000000pt" viewBox="0 0 1024.000000 1024.000000"
 preserveAspectRatio="xMidYMid meet">
<metadata>
Created by potrace 1.11, written by Peter Selinger 2001-2013
</metadata>
<g transform="translate(0.000000,1024.000000) scale(0.100000,-0.100000)"
fill="#000000" stroke="none">
<path d="M5615 8622 c-43 -7 -71 -24 -92 -55 -16 -24 -116 -340 -138 -437 -2
-8 -18 -62 -35 -120 -30 -99 -132 -450 -150 -515 -5 -16 -16 -55 -25 -85 -9
-30 -18 -62 -20 -70 -4 -15 -63 -221 -130 -450 -20 -69 -38 -132 -40 -140 -2
-8 -20 -71 -40 -140 -21 -69 -38 -129 -40 -135 -1 -5 -4 -17 -7 -25 -9 -24
-49 -163 -54 -185 -2 -11 -8 -31 -13 -45 -5 -14 -22 -70 -36 -125 -15 -55 -33
-118 -40 -140 -12 -36 -41 -135 -51 -175 -2 -8 -85 -294 -184 -635 -100 -341
-192 -658 -205 -705 -46 -165 -156 -546 -171 -591 -8 -25 -16 -54 -19 -65 -2
-10 -11 -44 -20 -74 -9 -30 -20 -68 -25 -85 -4 -16 -43 -147 -85 -290 -41
-143 -78 -271 -81 -284 -3 -14 -7 -28 -10 -33 -3 -4 -7 -16 -9 -25 -2 -10 -19
-72 -38 -138 -89 -304 -119 -408 -122 -419 -1 -6 -5 -18 -8 -26 -3 -8 -9 -28
-13 -45 -9 -38 -6 -26 -54 -190 -22 -77 -41 -153 -41 -170 -2 -47 17 -82 58
-108 47 -28 892 -278 945 -279 105 -1 130 35 204 292 19 69 49 170 65 225 16
55 31 107 33 115 6 21 36 124 96 330 28 96 53 186 56 199 3 14 7 27 9 31 2 3
52 172 110 376 59 203 122 423 142 489 47 162 63 217 68 238 2 10 15 55 29
100 26 86 155 531 161 557 2 8 23 78 45 155 23 77 70 239 105 360 35 121 84
292 110 380 25 88 62 214 81 280 18 66 38 134 44 150 5 17 54 185 109 375 146
508 268 930 306 1060 19 63 64 219 100 345 173 596 168 575 139 625 -19 31
-96 76 -145 85 -13 3 -62 16 -109 31 -47 14 -98 29 -115 34 -16 4 -146 42
-288 84 -268 80 -328 94 -362 88z"/>
<path d="M2852 7129 c-38 -15 -106 -75 -352 -309 -63 -60 -281 -265 -317 -297
-15 -15 -86 -81 -158 -149 -71 -67 -148 -139 -170 -159 -22 -21 -96 -90 -165
-155 -69 -65 -141 -132 -160 -150 -19 -18 -89 -83 -155 -145 -66 -62 -133
-125 -150 -141 -16 -15 -69 -63 -116 -108 -47 -45 -140 -132 -207 -195 -204
-190 -204 -213 4 -406 71 -66 165 -154 209 -196 44 -41 94 -89 111 -105 18
-16 83 -77 145 -135 63 -59 130 -122 150 -140 20 -19 92 -86 160 -150 68 -64
140 -132 160 -150 157 -148 298 -280 329 -309 20 -19 90 -84 154 -145 65 -60
141 -132 171 -160 311 -293 331 -311 380 -319 53 -10 89 12 176 102 106 111
348 367 370 394 10 10 53 57 97 103 102 107 132 147 141 187 13 59 -11 95
-138 208 -41 36 -79 70 -85 75 -6 6 -47 41 -91 80 -44 38 -82 72 -85 75 -3 3
-57 50 -120 105 -63 55 -117 102 -120 105 -3 3 -45 41 -95 84 -49 43 -106 93
-125 110 -19 17 -75 66 -125 110 -49 43 -106 93 -125 110 -19 18 -70 62 -112
99 l-77 66 77 68 c42 37 79 70 82 73 3 3 82 73 175 154 241 211 307 269 325
286 9 8 47 42 85 75 39 33 72 62 75 65 3 3 59 52 125 110 185 162 283 249 320
285 20 20 38 65 37 94 -1 39 -22 77 -73 131 -23 25 -101 108 -173 185 -72 77
-140 149 -151 161 -11 11 -76 80 -144 153 -68 73 -138 141 -154 153 -33 24
-81 31 -115 17z"/>
<path d="M7315 7122 c-17 -8 -50 -36 -74 -61 -96 -102 -188 -199 -245 -261
-376 -402 -370 -396 -382 -430 -13 -42 -13 -52 2 -88 16 -40 34 -58 194 -197
63 -55 117 -102 120 -105 3 -3 59 -53 125 -110 66 -58 122 -107 125 -110 3 -3
39 -34 80 -70 41 -36 77 -67 80 -70 3 -3 59 -53 125 -110 125 -110 172 -152
209 -185 12 -11 51 -45 85 -75 35 -30 82 -72 105 -92 l41 -38 -46 -42 c-26
-24 -60 -54 -75 -67 -16 -13 -49 -43 -74 -65 -25 -23 -79 -70 -119 -106 -41
-36 -79 -69 -85 -75 -15 -13 -77 -67 -155 -135 -36 -30 -72 -62 -81 -70 -8 -8
-70 -62 -135 -120 -66 -57 -125 -109 -131 -115 -6 -5 -40 -35 -75 -66 -280
-245 -318 -282 -320 -309 0 -8 -2 -23 -4 -33 -2 -10 3 -33 10 -50 15 -35 25
-47 191 -223 61 -66 126 -135 144 -154 294 -318 317 -341 350 -363 61 -39 123
-27 191 35 114 105 182 168 294 273 66 62 139 130 161 152 23 21 96 90 164
153 67 63 139 131 160 150 20 19 92 87 160 150 67 63 139 130 159 149 77 72
330 310 410 386 47 44 90 85 96 90 7 6 69 64 140 130 223 209 263 251 276 294
22 73 8 90 -271 351 -162 151 -267 249 -381 358 -47 45 -95 90 -106 99 -11 10
-78 73 -149 140 -189 178 -350 329 -484 453 -19 18 -91 85 -160 150 -69 65
-141 132 -160 150 -51 48 -268 251 -302 282 -65 63 -127 80 -183 50z"/>
</g>
</svg>
